<?xml version="1.0" encoding="UTF-8" standalone="no"?>
<!-- Created with Inkscape (http://www.inkscape.org/) -->

<svg
   width="56.789387mm"
   height="31.246695mm"
   viewBox="0 0 56.789387 31.246695"
   version="1.1"
   id="svg5"
   xml:space="preserve"
   inkscape:version="1.2.2 (732a01da63, 2022-12-09)"
   sodipodi:docname="vhk.svg"
   xmlns:inkscape="http://www.inkscape.org/namespaces/inkscape"
   xmlns:sodipodi="http://sodipodi.sourceforge.net/DTD/sodipodi-0.dtd"
   xmlns:xlink="http://www.w3.org/1999/xlink"
   xmlns="http://www.w3.org/2000/svg"
   xmlns:svg="http://www.w3.org/2000/svg"><sodipodi:namedview
     id="namedview7"
     pagecolor="#ffffff"
     bordercolor="#000000"
     borderopacity="0.25"
     inkscape:showpageshadow="2"
     inkscape:pageopacity="0.0"
     inkscape:pagecheckerboard="0"
     inkscape:deskcolor="#d1d1d1"
     inkscape:document-units="mm"
     showgrid="false"
     inkscape:zoom="1.5180134"
     inkscape:cx="-150.85505"
     inkscape:cy="97.495843"
     inkscape:window-width="1920"
     inkscape:window-height="1080"
     inkscape:window-x="-11"
     inkscape:window-y="-11"
     inkscape:window-maximized="1"
     inkscape:current-layer="layer1" /><defs
     id="defs2"><linearGradient
       inkscape:collect="always"
       id="linearGradient12180"><stop
         style="stop-color:#333333;stop-opacity:1;"
         offset="0.34693876"
         id="stop12176" /><stop
         style="stop-color:#333333;stop-opacity:0;"
         offset="1"
         id="stop12178" /></linearGradient><rect
       x="616.73328"
       y="255.26421"
       width="713.62189"
       height="89.435638"
       id="rect5409" /><rect
       x="150.1963"
       y="262.18475"
       width="401.84097"
       height="113.30597"
       id="rect790" /><rect
       x="150.1963"
       y="262.18475"
       width="401.84097"
       height="113.30597"
       id="rect790-8" /><filter
       inkscape:label="Ripple"
       inkscape:menu="Distort"
       inkscape:menu-tooltip="Horizontal rippling of edges"
       style="color-interpolation-filters:sRGB"
       id="filter2481"
       x="0"
       y="0"
       width="1"
       height="1"><feTurbulence
         numOctaves="1"
         baseFrequency="0.002 0.107"
         id="feTurbulence2475"
         seed="14" /><feColorMatrix
         values="2 0 0 0 0 0 0 0 0 0 0 0 0 0 0 0 0 0 0.5 0.5"
         result="result91"
         id="feColorMatrix2477" /><feDisplacementMap
         yChannelSelector="A"
         xChannelSelector="R"
         scale="14.3"
         in="SourceGraphic"
         in2="result91"
         id="feDisplacementMap2479" /></filter><rect
       x="150.1963"
       y="262.18475"
       width="401.84097"
       height="113.30597"
       id="rect790-8-7" /><filter
       inkscape:label="Ripple"
       inkscape:menu="Distort"
       inkscape:menu-tooltip="Horizontal rippling of edges"
       style="color-interpolation-filters:sRGB"
       id="filter2481-4"
       x="0"
       y="0"
       width="1"
       height="1"><feTurbulence
         numOctaves="1"
         baseFrequency="0.002 0.107"
         id="feTurbulence2475-9" /><feColorMatrix
         values="2 0 0 0 0 0 0 0 0 0 0 0 0 0 0 0 0 0 0.5 0.5"
         result="result91"
         id="feColorMatrix2477-4" /><feDisplacementMap
         yChannelSelector="A"
         xChannelSelector="R"
         scale="14.3"
         in="SourceGraphic"
         in2="result91"
         id="feDisplacementMap2479-0" /></filter><linearGradient
       inkscape:collect="always"
       xlink:href="#linearGradient12180"
       id="linearGradient12182"
       x1="349.77823"
       y1="334.09482"
       x2="349.77823"
       y2="284.7189"
       gradientUnits="userSpaceOnUse" /></defs><g
     inkscape:label="图层 1"
     inkscape:groupmode="layer"
     id="layer1"
     transform="translate(-71.803211,-103.87667)"><text
       xml:space="preserve"
       transform="scale(0.26458333)"
       id="text5407"
       style="font-style:normal;font-variant:normal;font-weight:bold;font-stretch:normal;font-size:85.3333px;font-family:'Microsoft New Tai Lue';-inkscape-font-specification:'Microsoft New Tai Lue Bold';text-align:center;white-space:pre;shape-inside:url(#rect5409);display:inline;fill:#2e2e2e;stroke-width:3.119" /><g
       id="g18024"><text
         xml:space="preserve"
         transform="matrix(0.26458333,0,0,-0.26458333,5.4661836,208.71531)"
         id="text788-1"
         style="font-style:normal;font-variant:normal;font-weight:bold;font-stretch:normal;font-size:85.3333px;font-family:'Microsoft New Tai Lue';-inkscape-font-specification:'Microsoft New Tai Lue Bold';text-align:center;white-space:pre;shape-inside:url(#rect790-8);display:inline;fill:url(#linearGradient12182);fill-opacity:1;stroke:none;stroke-width:3.119;filter:url(#filter2481)"
         x="89.1875"
         y="0"><tspan
           x="251.14929"
           y="337.8761"
           id="tspan18062"><tspan
             style="font-family:Bookmania-Black;-inkscape-font-specification:'Bookmania-Black Bold'"
             id="tspan18060">VHK</tspan></tspan></text><text
         xml:space="preserve"
         transform="matrix(0.26458333,0,0,0.26458333,15.8308,30.684737)"
         id="text788"
         style="font-style:normal;font-variant:normal;font-weight:bold;font-stretch:normal;font-size:85.3333px;font-family:'Microsoft New Tai Lue';-inkscape-font-specification:'Microsoft New Tai Lue Bold';text-align:center;white-space:pre;shape-inside:url(#rect790);display:inline;fill:#cccccc;fill-opacity:1;stroke:#000000;stroke-width:3.02362;stroke-dasharray:none"
         x="89.1875"
         y="0"><tspan
           x="282.76525"
           y="337.8761"
           id="tspan18066"><tspan
             style="font-family:Bookmania-BlackItalic;-inkscape-font-specification:'Bookmania-BlackItalic Bold'"
             id="tspan18064">HK</tspan></tspan></text><text
         xml:space="preserve"
         style="font-style:normal;font-variant:normal;font-weight:bold;font-stretch:normal;font-size:22.5778px;font-family:Bookmania-Black;-inkscape-font-specification:'Bookmania-Black Bold';text-align:center;text-anchor:middle;fill:#019833;fill-opacity:1;stroke:#000000;stroke-width:0.8;stroke-dasharray:none"
         x="81.888863"
         y="120.08113"
         id="text2337"><tspan
           sodipodi:role="line"
           id="tspan2335"
           style="font-style:normal;font-variant:normal;font-weight:bold;font-stretch:normal;font-family:Bookmania-BlackItalic;-inkscape-font-specification:'Bookmania-BlackItalic Bold';fill:#019833;fill-opacity:1;stroke:#000000;stroke-width:0.8;stroke-dasharray:none"
           x="81.888863"
           y="120.08113">V</tspan></text><path
         style="fill:#005d04;fill-opacity:1;stroke:none;stroke-width:0.857494;stroke-dasharray:none"
         d="M 81.714419,119.68378 79.358486,104.68023 77.2,104.72479 79.333557,119.69504 Z"
         id="path14418" /><path
         style="fill:#005d04;fill-opacity:1;stroke:none;stroke-width:0.167786;stroke-dasharray:none"
         d="m 76.221742,105.12536 3.044075,-0.0354 0.06293,-0.40939 -3.0301,-0.006 z"
         id="path14418-7" /><path
         style="fill:none;fill-opacity:1;stroke:none;stroke-width:0.995914;stroke-dasharray:none"
         d="m 299.89853,451.79889 c 0,-0.14971 -1.61626,-11.55711 -3.59169,-25.34978 -3.97805,-27.77523 -3.83234,-27.13134 -6.45433,-28.5211 -0.72464,-0.38408 -1.34869,-0.7048 -1.3868,-0.71271 -0.0381,-0.008 0.0162,-0.34141 0.12076,-0.7411 l 0.19004,-0.72672 h 12.97201 c 12.45724,0 12.97201,0.0245 12.97201,0.61666 0,0.46704 -0.32699,0.66895 -1.34773,0.83217 -3.22816,0.51621 -4.90412,2.17781 -4.91744,4.87534 -0.004,0.77892 1.21567,9.7516 2.71003,19.93929 2.08882,14.24035 2.80623,18.42891 3.10284,18.11578 1.20913,-1.27643 23.32945,-36.75861 23.71525,-38.04053 0.25173,-0.83643 0.36532,-1.82666 0.25243,-2.20051 -0.33716,-1.1165 -1.49043,-2.14822 -2.79355,-2.49911 -0.99435,-0.26775 -1.19251,-0.45292 -1.05352,-0.98443 0.16441,-0.62869 0.46361,-0.65466 7.54378,-0.65466 6.31193,0 7.37259,0.0706 7.37259,0.49079 0,0.28317 -0.87571,0.88785 -2.07012,1.42942 -1.30537,0.59189 -2.50298,1.44435 -3.24187,2.30758 -0.64447,0.75291 -8.41061,12.78249 -17.25808,26.73238 l -16.08632,25.36345 h -5.37515 c -2.95633,0 -5.37514,-0.1225 -5.37514,-0.27221 z"
         id="path14489"
         transform="scale(0.26458333)" /><path
         style="display:inline;fill:none;fill-opacity:1;stroke:none;stroke-width:0.995914;stroke-dasharray:none"
         d="m 299.89853,451.79889 c 0,-0.14971 -1.61626,-11.55711 -3.59169,-25.34978 -3.97805,-27.77523 -3.83234,-27.13134 -6.45433,-28.5211 -0.72464,-0.38408 -1.34869,-0.7048 -1.3868,-0.71271 -0.0381,-0.008 0.0162,-0.34141 0.12076,-0.7411 l 0.19004,-0.72672 h 12.97201 c 12.45724,0 12.97201,0.0245 12.97201,0.61666 0,0.46704 -0.32699,0.66895 -1.34773,0.83217 -3.22816,0.51621 -4.90412,2.17781 -4.91744,4.87534 -0.004,0.77892 1.21567,9.7516 2.71003,19.93929 2.08882,14.24035 2.80623,18.42891 3.10284,18.11578 1.20913,-1.27643 23.32945,-36.75861 23.71525,-38.04053 0.25173,-0.83643 0.36532,-1.82666 0.25243,-2.20051 -0.33716,-1.1165 -1.49043,-2.14822 -2.79355,-2.49911 -0.99435,-0.26775 -1.19251,-0.45292 -1.05352,-0.98443 0.16441,-0.62869 0.46361,-0.65466 7.54378,-0.65466 6.31193,0 7.37259,0.0706 7.37259,0.49079 0,0.28317 -0.87571,0.88785 -2.07012,1.42942 -1.30537,0.59189 -2.50298,1.44435 -3.24187,2.30758 -0.64447,0.75291 -8.41061,12.78249 -17.25808,26.73238 l -16.08632,25.36345 h -5.37515 c -2.95633,0 -5.37514,-0.1225 -5.37514,-0.27221 z"
         id="path14491"
         transform="scale(0.26458333)" /><path
         style="fill:#005d04;fill-opacity:1;stroke:none;stroke-width:0.799999;stroke-dasharray:none;stroke-opacity:1"
         d="m 76.221721,105.12214 c 0.356301,-0.0123 0.800891,-0.0715 1.054799,0 0.175965,0.48294 0.130004,0.92738 0.182547,1.41032 -0.25402,-1.00619 -0.584791,-1.18389 -1.237346,-1.41032 z"
         id="path17860"
         sodipodi:nodetypes="cccc" /></g></g></svg>
